<svg width="728.4" height="104.154" viewBox="0 0 728.4 104.154" xmlns="http://www.w3.org/2000/svg"><g id="svgGroup" stroke-linecap="round" fill-rule="evenodd" font-size="9pt" stroke="#000" stroke-width="0.25mm" fill="black" style="stroke:#000;stroke-width:0.25mm;fill:black"><path d="M 296.2 82.454 L 291.9 50.954 L 259.4 55.754 A 2.839 2.839 0 0 1 259.118 55.768 Q 258.318 55.768 257.619 55.301 A 3.236 3.236 0 0 1 257.55 55.254 Q 256.7 54.654 256.5 53.654 A 3.403 3.403 0 0 1 256.486 53.346 Q 256.486 52.794 256.677 52.323 A 2.537 2.537 0 0 1 257 51.754 A 2.182 2.182 0 0 1 258.505 50.865 A 2.681 2.681 0 0 1 258.6 50.854 L 291.3 45.954 L 289 29.454 L 265.9 32.654 A 2.839 2.839 0 0 1 265.618 32.668 Q 264.818 32.668 264.119 32.201 A 3.236 3.236 0 0 1 264.05 32.154 Q 263.2 31.554 263 30.554 A 3.19 3.19 0 0 1 262.987 30.265 A 2.665 2.665 0 0 1 263.55 28.604 A 2.545 2.545 0 0 1 264.21 27.989 A 2.245 2.245 0 0 1 265.2 27.654 L 288.4 24.454 L 286.1 7.854 Q 286 6.754 286.65 5.954 A 2.454 2.454 0 0 1 287.466 5.288 A 2.399 2.399 0 0 1 288.3 5.054 Q 288.559 5.007 288.801 5.007 A 2.157 2.157 0 0 1 290.2 5.504 A 2.413 2.413 0 0 1 291.085 7.118 A 3.202 3.202 0 0 1 291.1 7.254 L 293.4 23.854 L 314 20.954 Q 314.259 20.907 314.504 20.907 A 2.324 2.324 0 0 1 315.95 21.404 A 2.545 2.545 0 0 1 316.565 22.063 A 2.245 2.245 0 0 1 316.9 23.054 Q 317.075 23.928 316.6 24.688 A 2.794 2.794 0 0 1 316.45 24.904 Q 315.8 25.754 314.7 25.954 L 294 28.754 L 296.2 45.154 L 328.3 40.354 Q 328.559 40.307 328.801 40.307 A 2.157 2.157 0 0 1 330.2 40.804 A 2.454 2.454 0 0 1 330.866 41.619 A 2.399 2.399 0 0 1 331.1 42.454 A 2.511 2.511 0 0 1 331.15 42.914 Q 331.159 43.584 330.782 44.181 A 2.827 2.827 0 0 1 330.7 44.304 A 2.519 2.519 0 0 1 329.14 45.325 A 3.322 3.322 0 0 1 329 45.354 L 296.9 50.154 L 301.2 81.854 Q 301.4 82.854 300.75 83.654 Q 300.1 84.454 299.1 84.654 A 2.652 2.652 0 0 1 298.836 84.667 Q 298.093 84.667 297.436 84.236 A 3.173 3.173 0 0 1 297.25 84.104 A 2.832 2.832 0 0 1 296.507 83.275 A 2.668 2.668 0 0 1 296.2 82.454 Z M 20.2 81.054 L 20.2 42.354 A 2.398 2.398 0 0 1 20.68 40.918 A 3.135 3.135 0 0 1 20.85 40.704 Q 21.5 39.954 22.5 39.954 A 2.227 2.227 0 0 1 24.134 40.635 A 2.813 2.813 0 0 1 24.2 40.704 A 2.804 2.804 0 0 1 24.66 41.351 A 2.196 2.196 0 0 1 24.9 42.354 L 24.9 45.054 Q 27.1 42.754 30 41.354 Q 32.9 39.954 36.2 39.954 A 14.584 14.584 0 0 1 40.218 40.488 A 12.265 12.265 0 0 1 43.4 41.904 A 12.887 12.887 0 0 1 48.038 47.029 A 15.421 15.421 0 0 1 48.2 47.354 Q 50.3 44.054 53.7 42.004 A 14.378 14.378 0 0 1 61.038 39.956 A 17.058 17.058 0 0 1 61.3 39.954 A 14.32 14.32 0 0 1 66.021 40.699 A 11.978 11.978 0 0 1 71.45 44.554 A 15.877 15.877 0 0 1 74.47 50.66 Q 75.063 52.931 75.174 55.601 A 30.087 30.087 0 0 1 75.2 56.854 L 75.2 80.954 A 2.272 2.272 0 0 1 74.595 82.504 A 2.932 2.932 0 0 1 74.55 82.554 A 2.138 2.138 0 0 1 72.993 83.252 A 2.789 2.789 0 0 1 72.9 83.254 A 2.312 2.312 0 0 1 71.222 82.576 A 2.755 2.755 0 0 1 71.2 82.554 Q 70.5 81.854 70.5 80.954 L 70.5 56.854 A 16.492 16.492 0 0 0 70.458 55.719 Q 70.388 54.704 70.2 53.454 A 14.883 14.883 0 0 0 69.317 50.204 A 17.049 17.049 0 0 0 69 49.454 Q 68.1 47.454 66.25 46.104 A 6.551 6.551 0 0 0 64.097 45.094 Q 63.186 44.844 62.105 44.778 A 13.138 13.138 0 0 0 61.3 44.754 A 11.317 11.317 0 0 0 57.261 45.45 A 10.081 10.081 0 0 0 53.3 48.204 Q 50.2 51.654 50.2 56.854 L 50.2 80.954 A 2.272 2.272 0 0 1 49.595 82.504 A 2.932 2.932 0 0 1 49.55 82.554 A 2.138 2.138 0 0 1 47.993 83.252 A 2.789 2.789 0 0 1 47.9 83.254 Q 46.9 83.254 46.15 82.554 A 2.586 2.586 0 0 1 45.68 81.978 A 1.985 1.985 0 0 1 45.4 80.954 L 45.4 57.054 Q 45.4 53.854 44.45 51.054 Q 43.5 48.254 41.5 46.504 A 6.845 6.845 0 0 0 38.492 45 Q 37.454 44.758 36.239 44.754 A 12.419 12.419 0 0 0 36.2 44.754 Q 31.7 44.754 28.3 47.504 A 9.037 9.037 0 0 0 25.699 50.777 A 9.208 9.208 0 0 0 24.9 54.654 L 24.9 81.054 A 2.147 2.147 0 0 1 24.364 82.476 A 2.886 2.886 0 0 1 24.2 82.654 A 2.311 2.311 0 0 1 22.531 83.354 A 2.839 2.839 0 0 1 22.5 83.354 A 2.336 2.336 0 0 1 21.64 83.2 A 2.134 2.134 0 0 1 20.85 82.654 Q 20.2 81.954 20.2 81.054 Z M 398.2 81.254 L 388.3 45.154 Q 382 46.454 376.7 47.704 Q 372.177 48.771 369.256 49.656 A 55.937 55.937 0 0 0 368.3 49.954 A 2.338 2.338 0 0 1 367.835 50.06 Q 367.223 50.132 366.66 49.837 A 2.358 2.358 0 0 1 366.6 49.804 Q 365.8 49.354 365.5 48.454 A 2.299 2.299 0 0 1 365.386 47.902 Q 365.339 47.291 365.65 46.704 Q 366.1 45.854 367 45.654 A 54.558 54.558 0 0 1 369.105 45.004 Q 371.311 44.367 374.338 43.643 A 194.717 194.717 0 0 1 375.35 43.404 Q 380.7 42.154 387 40.854 L 383.1 26.554 A 2.525 2.525 0 0 1 383.039 26.005 Q 383.039 25.392 383.35 24.804 Q 383.8 23.954 384.7 23.754 A 2.521 2.521 0 0 1 385.203 23.693 Q 385.808 23.682 386.366 23.985 A 2.714 2.714 0 0 1 386.4 24.004 Q 387.2 24.454 387.5 25.354 L 391.5 39.954 Q 399.5 38.254 407.2 36.954 Q 414.088 35.791 418.735 35.268 A 103.822 103.822 0 0 1 419.8 35.154 A 2.825 2.825 0 0 1 420.074 35.13 Q 421.073 35.095 421.679 35.846 A 2.797 2.797 0 0 1 422 36.354 A 2.621 2.621 0 0 1 422.24 36.847 Q 422.609 37.883 421.8 38.854 L 407.1 57.054 Q 406.5 57.754 405.55 57.904 A 2.404 2.404 0 0 1 405.231 57.933 Q 404.48 57.951 403.9 57.454 Q 403.2 56.854 403.05 55.904 A 2.404 2.404 0 0 1 403.021 55.585 Q 403.003 54.834 403.5 54.254 L 414.7 40.354 A 299.485 299.485 0 0 0 409.974 41.114 Q 407.481 41.534 404.72 42.037 A 490.936 490.936 0 0 0 404.35 42.104 Q 398.6 43.154 392.7 44.254 L 402.6 80.054 A 2.521 2.521 0 0 1 402.661 80.556 Q 402.672 81.162 402.369 81.719 A 2.714 2.714 0 0 1 402.35 81.754 A 1.965 1.965 0 0 1 401.111 82.727 A 2.413 2.413 0 0 1 401 82.754 A 2.338 2.338 0 0 1 400.535 82.86 Q 399.923 82.932 399.36 82.637 A 2.358 2.358 0 0 1 399.3 82.604 Q 398.5 82.154 398.2 81.254 Z M 516.7 32.754 L 467.2 38.654 A 2.488 2.488 0 0 1 466.953 38.666 Q 466.094 38.666 465.35 38.054 A 2.801 2.801 0 0 1 464.75 37.384 A 2.35 2.35 0 0 1 464.4 36.354 A 2.652 2.652 0 0 1 464.387 36.09 Q 464.387 35.347 464.818 34.69 A 3.173 3.173 0 0 1 464.95 34.504 A 2.545 2.545 0 0 1 465.61 33.889 A 2.245 2.245 0 0 1 466.6 33.554 L 520.5 27.254 A 2.797 2.797 0 0 1 520.715 27.246 Q 521.884 27.246 522.8 28.254 Q 523.6 29.354 523.1 30.654 A 84.263 84.263 0 0 1 517.845 41.677 A 99.901 99.901 0 0 1 514.8 46.704 Q 509.6 54.754 503.1 62.054 Q 496.6 69.354 489.35 75.254 A 90.124 90.124 0 0 1 480.229 81.809 A 75.765 75.765 0 0 1 474.7 84.954 A 2.448 2.448 0 0 1 473.908 85.236 Q 473.37 85.325 472.8 85.154 Q 471.8 84.854 471.3 83.954 A 3.145 3.145 0 0 1 471.086 83.099 Q 471.072 82.955 471.072 82.811 A 2.97 2.97 0 0 1 471.2 81.954 A 2.364 2.364 0 0 1 471.569 81.205 A 2.07 2.07 0 0 1 472.4 80.554 Q 478.9 77.254 485.35 72.054 A 114.979 114.979 0 0 0 497.004 61.205 A 125.97 125.97 0 0 0 497.75 60.404 Q 503.7 53.954 508.55 46.904 Q 513.4 39.854 516.7 32.754 Z M 160.3 85.554 L 160.3 72.154 A 14.336 14.336 0 0 1 152.975 76.298 A 21.824 21.824 0 0 1 147.9 76.854 A 21.167 21.167 0 0 1 142.41 76.18 A 15.229 15.229 0 0 1 135.1 71.854 A 16.768 16.768 0 0 1 131.007 64.011 A 24.889 24.889 0 0 1 130.4 58.354 A 24.818 24.818 0 0 1 131.004 52.717 Q 132.085 48.08 135.1 44.904 A 15.55 15.55 0 0 1 143.823 40.306 A 22.585 22.585 0 0 1 147.9 39.954 Q 154.804 39.954 158.948 43.441 A 13.395 13.395 0 0 1 160.3 44.754 L 160.3 42.254 Q 160.3 41.254 161 40.504 A 2.356 2.356 0 0 1 161.798 39.931 A 2.272 2.272 0 0 1 162.7 39.754 A 2.171 2.171 0 0 1 163.638 39.953 A 2.16 2.16 0 0 1 164.35 40.504 Q 165 41.254 165 42.254 L 165 85.554 A 25.558 25.558 0 0 1 164.344 91.502 A 18.117 18.117 0 0 1 160.7 98.954 A 13.849 13.849 0 0 1 150.607 104.108 A 18.371 18.371 0 0 1 149.3 104.154 Q 144 104.154 140.15 101.304 A 14.494 14.494 0 0 1 135.574 95.562 A 18.901 18.901 0 0 1 134.7 93.254 A 2.47 2.47 0 0 1 134.58 92.68 Q 134.532 92.12 134.766 91.58 A 2.649 2.649 0 0 1 134.8 91.504 Q 135.2 90.654 136.2 90.354 A 2.57 2.57 0 0 1 136.664 90.215 Q 137.392 90.074 138.035 90.445 A 2.263 2.263 0 0 1 138.05 90.454 Q 138.9 90.954 139.2 91.854 A 12.425 12.425 0 0 0 140.986 95.558 Q 143.254 98.672 147.396 99.231 A 14.225 14.225 0 0 0 149.3 99.354 A 11.32 11.32 0 0 0 152.956 98.789 A 9.404 9.404 0 0 0 157.35 95.654 Q 160.3 91.954 160.3 85.554 Z M 606.1 28.454 L 606.1 8.054 A 2.385 2.385 0 0 1 606.803 6.352 A 3.132 3.132 0 0 1 606.85 6.304 A 2.614 2.614 0 0 1 607.622 5.759 A 2.349 2.349 0 0 1 608.6 5.554 A 2.633 2.633 0 0 1 609.486 5.697 A 2.281 2.281 0 0 1 610.4 6.304 Q 611.1 7.054 611.1 8.054 L 611.1 28.454 A 75.927 75.927 0 0 1 609.222 45.708 A 59.52 59.52 0 0 1 602.55 62.554 Q 594 77.054 577.4 85.354 A 2.587 2.587 0 0 1 576.339 85.582 Q 575.929 85.582 575.5 85.454 Q 574.5 85.154 574 84.254 A 3.145 3.145 0 0 1 573.786 83.399 Q 573.772 83.255 573.772 83.111 A 2.97 2.97 0 0 1 573.9 82.254 A 2.364 2.364 0 0 1 574.269 81.505 A 2.07 2.07 0 0 1 575.1 80.854 Q 606.1 65.354 606.1 28.454 Z M 211.6 58.754 L 211.6 59.054 A 2.147 2.147 0 0 1 211.064 60.476 A 2.886 2.886 0 0 1 210.9 60.654 A 1.951 1.951 0 0 1 209.749 61.304 A 2.907 2.907 0 0 1 209.2 61.354 L 180.2 61.354 A 29.925 29.925 0 0 0 180.584 66.293 Q 181.054 69.097 182.098 71.37 A 15.704 15.704 0 0 0 183.45 73.754 A 10.495 10.495 0 0 0 190.152 78.102 A 16.869 16.869 0 0 0 193.7 78.454 Q 197.3 78.454 200.45 76.904 A 13.966 13.966 0 0 0 203.162 75.179 A 11.031 11.031 0 0 0 205.3 72.854 Q 205.9 72.054 206.85 71.854 A 2.282 2.282 0 0 1 207.259 71.805 Q 207.975 71.785 208.6 72.254 A 2.156 2.156 0 0 1 209.565 73.601 A 2.906 2.906 0 0 1 209.6 73.754 Q 209.799 74.748 209.207 75.544 A 2.617 2.617 0 0 1 209.2 75.554 A 16.7 16.7 0 0 1 203.965 80.427 A 20.235 20.235 0 0 1 202.65 81.154 Q 198.5 83.254 193.7 83.254 A 19.855 19.855 0 0 1 187.72 82.397 A 15.623 15.623 0 0 1 180.3 77.404 A 19.888 19.888 0 0 1 176.406 69.764 Q 175.597 66.804 175.439 63.291 A 38.639 38.639 0 0 1 175.4 61.554 A 33.599 33.599 0 0 1 175.978 55.127 Q 176.702 51.41 178.338 48.492 A 18.077 18.077 0 0 1 180.3 45.654 Q 185.2 39.854 193.7 39.854 A 17.666 17.666 0 0 1 200.899 41.293 A 17.013 17.013 0 0 1 206.15 44.954 A 18.203 18.203 0 0 1 210.833 53.417 A 26.281 26.281 0 0 1 211.6 58.754 Z M 115.2 81.054 L 115.2 80.254 L 102.9 82.654 A 37.2 37.2 0 0 1 100.253 83.078 Q 97.737 83.384 95.729 83.219 A 15.017 15.017 0 0 1 95.1 83.154 A 13.318 13.318 0 0 1 92.32 82.515 A 10.171 10.171 0 0 1 89.7 81.154 Q 88.1 79.854 87.15 77.904 Q 86.2 75.954 86 73.454 Q 85.67 70.261 86.476 67.69 A 10.896 10.896 0 0 1 88.55 63.904 Q 91.216 60.731 96.352 59.455 A 25.421 25.421 0 0 1 98.3 59.054 L 115.2 56.154 L 115.2 53.354 Q 115.2 51.354 114.55 49.104 A 5.592 5.592 0 0 0 113.435 46.987 A 5.464 5.464 0 0 0 111.9 45.754 Q 110.3 44.754 107.8 44.754 A 17.889 17.889 0 0 0 103.195 45.416 Q 98.943 46.553 93.677 49.646 A 66.851 66.851 0 0 0 92.5 50.354 Q 91.9 50.687 91.3 50.687 A 2.233 2.233 0 0 1 90.7 50.604 Q 89.8 50.354 89.3 49.554 A 2.665 2.665 0 0 1 88.998 48.958 Q 88.782 48.342 88.95 47.704 Q 89.2 46.754 90 46.354 A 69.469 69.469 0 0 1 93.879 44.145 Q 95.812 43.13 97.551 42.406 A 30.238 30.238 0 0 1 100.3 41.404 A 38.6 38.6 0 0 1 103.172 40.635 Q 105.766 40.054 107.8 40.054 A 16.53 16.53 0 0 1 109.503 40.137 Q 110.359 40.226 111.098 40.409 A 9.281 9.281 0 0 1 111.45 40.504 A 16.454 16.454 0 0 1 112.72 40.926 Q 113.339 41.162 113.863 41.429 A 9.421 9.421 0 0 1 114.1 41.554 Q 117 43.154 118.5 46.204 Q 120 49.254 120 53.354 L 120 81.054 A 2.517 2.517 0 0 1 119.871 81.875 A 2.143 2.143 0 0 1 119.35 82.704 A 2.17 2.17 0 0 1 118.199 83.3 A 3.144 3.144 0 0 1 117.6 83.354 Q 116.6 83.354 115.9 82.704 A 2.138 2.138 0 0 1 115.202 81.147 A 2.789 2.789 0 0 1 115.2 81.054 Z M 0 80.854 L 0 13.054 A 2.659 2.659 0 0 1 0.2 12.013 A 2.52 2.52 0 0 1 0.75 11.204 A 2.614 2.614 0 0 1 1.522 10.659 A 2.349 2.349 0 0 1 2.5 10.454 A 2.633 2.633 0 0 1 3.386 10.597 A 2.281 2.281 0 0 1 4.3 11.204 A 2.581 2.581 0 0 1 4.997 12.918 A 3.357 3.357 0 0 1 5 13.054 L 5 80.854 A 2.312 2.312 0 0 1 4.322 82.532 A 2.755 2.755 0 0 1 4.3 82.554 A 2.363 2.363 0 0 1 2.806 83.24 A 3.207 3.207 0 0 1 2.5 83.254 Q 1.5 83.254 0.75 82.554 A 2.356 2.356 0 0 1 0.178 81.756 A 2.272 2.272 0 0 1 0 80.854 Z M 726 45.054 L 662.8 47.854 A 2.336 2.336 0 0 1 662.568 47.866 Q 661.706 47.866 661 47.204 A 3.013 3.013 0 0 1 660.397 46.432 A 2.594 2.594 0 0 1 660.1 45.454 A 2.659 2.659 0 0 1 660.3 44.413 A 2.52 2.52 0 0 1 660.85 43.604 A 2.614 2.614 0 0 1 661.622 43.059 A 2.349 2.349 0 0 1 662.6 42.854 L 725.7 40.054 Q 726.8 39.954 727.55 40.654 A 2.67 2.67 0 0 1 728.381 42.284 A 3.446 3.446 0 0 1 728.4 42.454 Q 728.4 43.454 727.75 44.254 A 2.099 2.099 0 0 1 726.219 45.046 A 2.847 2.847 0 0 1 726 45.054 Z M 578.5 48.754 L 578.5 10.954 A 2.633 2.633 0 0 1 578.644 10.068 A 2.281 2.281 0 0 1 579.25 9.154 Q 580 8.454 581 8.454 A 2.822 2.822 0 0 1 581.857 8.578 A 2.299 2.299 0 0 1 582.8 9.154 A 2.363 2.363 0 0 1 583.486 10.648 A 3.207 3.207 0 0 1 583.5 10.954 L 583.5 48.754 Q 583.5 49.754 582.8 50.504 A 2.325 2.325 0 0 1 581.136 51.251 A 3.12 3.12 0 0 1 581 51.254 A 2.385 2.385 0 0 1 579.299 50.551 A 3.132 3.132 0 0 1 579.25 50.504 A 2.614 2.614 0 0 1 578.706 49.732 A 2.349 2.349 0 0 1 578.5 48.754 Z M 147.9 72.154 A 16.252 16.252 0 0 0 151.649 71.746 A 10.798 10.798 0 0 0 157.1 68.704 A 10.817 10.817 0 0 0 159.496 64.632 Q 160.4 61.966 160.4 58.354 A 22.318 22.318 0 0 0 160.094 54.526 Q 159.395 50.518 157.1 48.154 Q 153.8 44.754 147.9 44.754 A 16.79 16.79 0 0 0 144.036 45.172 Q 141.021 45.885 138.946 47.812 A 10.596 10.596 0 0 0 138.45 48.304 Q 135.48 51.452 135.143 56.919 A 23.361 23.361 0 0 0 135.1 58.354 A 20.883 20.883 0 0 0 135.461 62.362 Q 135.917 64.691 136.949 66.504 A 10.945 10.945 0 0 0 138.45 68.554 A 10.922 10.922 0 0 0 144.112 71.748 A 16.64 16.64 0 0 0 147.9 72.154 Z M 509.1 13.054 L 477.6 16.454 Q 476.6 16.554 475.8 15.904 Q 475 15.254 474.8 14.254 Q 474.7 13.154 475.4 12.354 A 2.719 2.719 0 0 1 476.188 11.722 A 2.487 2.487 0 0 1 477.1 11.454 L 508.6 7.954 Q 509.7 7.854 510.5 8.504 A 2.413 2.413 0 0 1 511.385 10.118 A 3.202 3.202 0 0 1 511.4 10.254 Q 511.5 11.254 510.85 12.054 A 2.775 2.775 0 0 1 509.305 13.011 A 3.575 3.575 0 0 1 509.1 13.054 Z M 102.1 77.854 L 115.2 75.454 L 115.2 60.954 L 99.2 63.654 A 22.05 22.05 0 0 0 97.072 64.119 Q 94.85 64.73 93.552 65.71 A 5.871 5.871 0 0 0 93.25 65.954 Q 91.693 67.301 91.163 68.825 A 4.944 4.944 0 0 0 91 69.404 Q 90.6 71.254 90.7 72.954 Q 90.877 74.776 91.502 75.942 A 3.93 3.93 0 0 0 92.6 77.254 Q 94.731 78.852 100.567 78.085 A 42.196 42.196 0 0 0 102.1 77.854 Z M 180.5 56.654 L 206.4 56.654 Q 205.4 50.954 202.05 47.854 A 11.562 11.562 0 0 0 194.849 44.796 A 15.247 15.247 0 0 0 193.7 44.754 A 15.308 15.308 0 0 0 189.794 45.227 A 11.214 11.214 0 0 0 184.95 47.854 A 13.337 13.337 0 0 0 181.893 52.164 Q 180.981 54.16 180.5 56.654 Z M 337.8 19.054 L 324.1 3.654 Q 323.5 2.954 323.55 2.054 Q 323.6 1.154 324.3 0.554 Q 325 -0.046 325.9 0.004 A 1.951 1.951 0 0 1 326.588 0.162 A 1.728 1.728 0 0 1 327.3 0.754 L 341 16.254 A 1.849 1.849 0 0 1 341.554 17.592 Q 341.554 17.605 341.554 17.617 A 2.464 2.464 0 0 1 341.55 17.754 Q 341.5 18.654 340.8 19.254 A 1.849 1.849 0 0 1 339.462 19.808 Q 339.45 19.808 339.437 19.808 A 2.464 2.464 0 0 1 339.3 19.804 Q 338.4 19.754 337.8 19.054 Z M 329.2 26.354 L 315.5 10.954 Q 314.9 10.254 314.95 9.354 Q 315 8.454 315.7 7.854 A 2.385 2.385 0 0 1 316.334 7.456 Q 316.768 7.275 317.25 7.304 A 1.979 1.979 0 0 1 318.6 7.943 A 2.657 2.657 0 0 1 318.7 8.054 L 332.4 23.554 A 1.849 1.849 0 0 1 332.954 24.892 Q 332.954 24.905 332.954 24.917 A 2.464 2.464 0 0 1 332.95 25.054 Q 332.9 25.954 332.2 26.554 A 1.849 1.849 0 0 1 330.862 27.108 Q 330.85 27.108 330.837 27.108 A 2.464 2.464 0 0 1 330.7 27.104 Q 329.8 27.054 329.2 26.354 Z" vector-effect="non-scaling-stroke"/></g></svg>