<svg width="818.3" height="92.513" viewBox="0 0 818.3 92.513" xmlns="http://www.w3.org/2000/svg"><g id="svgGroup" stroke-linecap="round" fill-rule="evenodd" font-size="9pt" stroke="#000" stroke-width="0.25mm" fill="red" style="stroke:#000;stroke-width:0.25mm;fill:white"><path d="M 117.068 55.697 A 12.457 12.457 0 0 0 119.5 55.3 A 5.852 5.852 0 0 0 118.265 52.786 A 7.849 7.849 0 0 0 116.75 51.4 Q 114.5 49.8 112.6 50 A 25.351 25.351 0 0 1 112.289 49.248 A 22.177 22.177 0 0 1 110.75 42.55 Q 110.5 38.8 109.5 35 Q 108.3 32.9 107.5 30.7 A 13.645 13.645 0 0 0 106.954 29.411 A 15.449 15.449 0 0 0 105.1 26.5 A 19.176 19.176 0 0 0 105.058 26.479 Q 102.03 25.018 99.301 25.018 A 9.966 9.966 0 0 0 98.5 25.05 Q 95.4 25.3 92.6 26.75 Q 89.8 28.2 87.35 30.35 A 168.903 168.903 0 0 0 85.562 31.941 A 141.881 141.881 0 0 0 82.8 34.5 L 81.2 36.1 Q 80.4 36.9 79.6 37.5 Q 78.8 33.1 76.1 29.65 Q 73.4 26.2 69.4 24.95 Q 65.4 23.7 60.8 26.2 A 19.499 19.499 0 0 1 60.793 26.207 Q 59.494 27.505 57.2 29.3 A 25.315 25.315 0 0 1 56.62 29.741 Q 55.376 30.658 54.388 31.126 A 5.852 5.852 0 0 1 53.4 31.5 A 3.503 3.503 0 0 1 53.287 31.285 Q 52.978 30.644 52.85 29.75 A 3.835 3.835 0 0 1 52.832 29.605 Q 52.727 28.598 53.1 27.2 A 17.979 17.979 0 0 0 51.012 25.581 A 22.748 22.748 0 0 0 48 23.9 Q 46.174 23.048 44.607 23.048 A 5.187 5.187 0 0 0 42.7 23.4 Q 42.262 24.4 41.962 25.693 A 20.936 20.936 0 0 0 41.65 27.35 A 8.196 8.196 0 0 0 41.626 27.527 Q 41.566 28.001 41.566 28.452 A 5.729 5.729 0 0 0 42.4 31.5 A 3.411 3.411 0 0 0 42.656 31.819 Q 42.823 32.001 42.995 32.126 A 1.414 1.414 0 0 0 43.45 32.35 A 0.82 0.82 0 0 1 43.546 32.383 Q 44.027 32.58 44.3 33.4 A 5.855 5.855 0 0 1 44.419 33.766 Q 44.627 34.483 44.772 35.55 A 26.381 26.381 0 0 1 44.9 36.7 Q 45.1 38.9 45.2 40.6 A 4.201 4.201 0 0 0 45.204 40.767 Q 45.214 41.034 45.256 41.425 A 21.502 21.502 0 0 0 45.3 41.8 Q 45.6 47.8 45.9 54.85 Q 46.037 58.081 45.986 61.134 A 87.727 87.727 0 0 1 45.6 68.1 A 9.292 9.292 0 0 0 44.541 68.525 A 7.34 7.34 0 0 0 42.2 70.25 A 9.409 9.409 0 0 0 41.446 71.21 A 10.521 10.521 0 0 0 40.2 73.7 Q 40.552 74.872 41.094 75.769 A 5.829 5.829 0 0 0 43.25 77.9 A 9.13 9.13 0 0 0 45.284 78.731 A 10.756 10.756 0 0 0 48.15 79.1 Q 50.9 79.1 53.55 78.4 A 33.892 33.892 0 0 0 54.48 78.141 Q 55.472 77.848 56.33 77.524 A 17.837 17.837 0 0 0 58 76.8 A 7.59 7.59 0 0 0 58.011 76.651 Q 58.068 75.753 57.893 75.043 A 3.079 3.079 0 0 0 56.8 73.3 A 18.778 18.778 0 0 0 55.838 72.591 A 15.427 15.427 0 0 0 54 71.5 A 56.091 56.091 0 0 1 52.359 58.014 A 57.369 57.369 0 0 1 52.4 55.85 Q 52.7 47.9 53.7 40 Q 56.5 39 59.65 37.15 A 33.052 33.052 0 0 0 60.986 36.324 Q 62.043 35.633 62.915 34.936 A 16.643 16.643 0 0 0 64.6 33.4 Q 65.191 33.356 65.729 33.403 A 4.771 4.771 0 0 1 68.9 34.9 A 10.336 10.336 0 0 1 70.156 36.541 A 12.415 12.415 0 0 1 71.35 39.1 A 67.352 67.352 0 0 1 71.559 39.723 A 61.033 61.033 0 0 1 72.8 44 Q 73 44.8 73.2 45.5 Q 73.4 46.2 73.6 46.8 A 29.34 29.34 0 0 1 73.128 47.997 A 34.56 34.56 0 0 1 71.85 50.7 Q 70.8 52.7 69.7 54.7 Q 68 57.6 66.5 60.7 A 25.134 25.134 0 0 0 66.098 61.573 A 21.984 21.984 0 0 0 64.5 66.95 A 11.884 11.884 0 0 0 64.353 68.816 Q 64.353 71.071 65.2 73.4 A 2.276 2.276 0 0 1 65.209 73.405 Q 65.407 73.504 65.7 73.7 A 33.838 33.838 0 0 0 66.386 74.182 A 37.822 37.822 0 0 0 69.6 76.15 Q 71.7 77.3 74.05 77.55 A 6.391 6.391 0 0 0 74.727 77.586 Q 76.771 77.586 79 76.3 Q 79.98 75.269 80.76 74.277 A 20.262 20.262 0 0 0 82.05 72.45 A 8.371 8.371 0 0 0 82.629 71.33 Q 82.987 70.497 83.236 69.484 A 17.863 17.863 0 0 0 83.6 67.5 Q 83.769 66.15 83.748 64.705 A 24.055 24.055 0 0 0 83.6 62.4 Q 83.3 59.7 82.9 57 Q 82.5 54.2 82.25 51.5 A 23.802 23.802 0 0 1 82.227 51.241 Q 82.019 48.689 82.4 46.5 A 36.27 36.27 0 0 1 84.662 43.291 A 44.521 44.521 0 0 1 88.8 38.75 Q 92.7 35 97.3 33.1 Q 101.1 36.3 102.6 41.85 A 40.921 40.921 0 0 1 102.76 42.462 Q 103.924 47.046 103.924 51.527 A 34.383 34.383 0 0 1 103.9 52.8 Q 100.8 54 98.3 56.35 Q 96.737 57.819 95.527 59.112 A 37.912 37.912 0 0 0 94.2 60.6 A 16.543 16.543 0 0 0 93.157 63.392 A 20.493 20.493 0 0 0 92.5 67.2 Q 92.292 69.766 92.709 71.466 A 5.85 5.85 0 0 0 93.2 72.8 A 9.213 9.213 0 0 1 93.693 73.037 A 7.735 7.735 0 0 1 96.15 75 Q 97.3 76.4 98.55 77.7 A 7.552 7.552 0 0 0 99.768 78.723 A 8.965 8.965 0 0 0 101.7 79.7 Q 101.85 79.625 102.169 79.494 A 24.826 24.826 0 0 1 102.4 79.4 Q 103.2 79.1 104.1 78.8 Q 105 78.5 106 78.7 A 8.895 8.895 0 0 0 108.818 76.083 A 11.456 11.456 0 0 0 110.2 73.35 A 31.738 31.738 0 0 0 111.243 69.73 A 40.804 40.804 0 0 0 112 65.15 Q 112.5 60.6 112.6 56.2 Q 113.8 55.686 115.294 55.686 A 9.125 9.125 0 0 1 115.8 55.7 A 10.865 10.865 0 0 0 116.403 55.717 Q 116.734 55.717 117.068 55.697 Z M 413.1 61.5 Q 413.4 61.9 412.85 62.45 A 3.193 3.193 0 0 1 411.672 63.192 A 3.784 3.784 0 0 1 411.5 63.25 Q 410.7 63.5 410 63 A 2.688 2.688 0 0 1 410.078 63.138 Q 410.278 63.522 410.15 63.65 Q 410 63.8 409.7 63.8 Q 409.493 63.869 409.358 63.961 A 0.752 0.752 0 0 0 409.25 64.05 A 0.168 0.168 0 0 0 409.204 64.141 Q 409.171 64.319 409.4 64.7 A 56.417 56.417 0 0 1 405.326 64.438 A 46.338 46.338 0 0 1 403.05 64.15 Q 400.1 63.7 397.3 63.2 Q 394.2 62.6 391.15 62.2 A 46.921 46.921 0 0 0 387.162 61.856 A 56.966 56.966 0 0 0 384.6 61.8 Q 384.511 62.958 384.779 64.512 A 18.438 18.438 0 0 0 384.85 64.9 A 57.458 57.458 0 0 0 385.577 68.127 A 63.72 63.72 0 0 0 385.7 68.6 Q 386.2 70.8 386.6 73 A 17.85 17.85 0 0 1 386.791 74.316 Q 386.937 75.7 386.8 76.8 A 5.147 5.147 0 0 1 385.421 79.557 A 6.836 6.836 0 0 1 384.85 80.1 Q 383.22 81.483 380.956 80.524 A 6.406 6.406 0 0 1 380.9 80.5 A 26.017 26.017 0 0 1 379.377 76.399 A 22.568 22.568 0 0 1 378.95 74.55 Q 378.4 71.6 378.05 68.55 Q 377.7 65.5 376.7 62.4 A 81.106 81.106 0 0 0 367.639 63.474 A 66.25 66.25 0 0 0 362.3 64.65 Q 355.7 66.4 349.25 68.25 A 92.899 92.899 0 0 1 339.932 70.392 A 109.222 109.222 0 0 1 335.4 71.1 A 0.599 0.599 0 0 1 335.314 70.786 Q 335.314 70.357 335.85 69.75 A 36.811 36.811 0 0 1 336.768 68.746 A 30.009 30.009 0 0 1 337.3 68.2 L 337.7 67.8 A 18.15 18.15 0 0 1 340.604 65.464 A 24.754 24.754 0 0 1 343.6 63.8 Q 347.2 62.1 351 61 Q 357.1 59.2 363.25 57.85 Q 369.4 56.5 375.8 55.3 Q 375.5 50.3 375.05 47.1 Q 374.6 43.9 374.05 40.9 A 2047.062 2047.062 0 0 0 373.602 38.467 Q 373.401 37.377 373.176 36.161 A 4132.212 4132.212 0 0 0 372.7 33.6 Q 368.1 32.4 363.55 30.35 A 38.615 38.615 0 0 1 355.358 25.396 A 36.177 36.177 0 0 1 355.3 25.35 Q 351.6 22.4 349.4 18.3 A 17.823 17.823 0 0 1 347.376 11.337 Q 347.296 10.413 347.296 9.45 A 23.41 23.41 0 0 1 347.3 9 A 2.328 2.328 0 0 1 348.177 9.157 Q 348.76 9.392 349.127 9.978 A 2.88 2.88 0 0 1 349.3 10.3 Q 349.9 11.6 350.4 12.4 Q 351.1 13.4 351.65 14.55 Q 352.2 15.7 352.9 16.7 Q 354.9 19.4 357.8 20.95 A 29.992 29.992 0 0 0 362.876 23.073 A 34.35 34.35 0 0 0 364.15 23.45 Q 367.6 24.4 371 25.4 A 41.294 41.294 0 0 0 369.614 16.5 A 45.693 45.693 0 0 0 369.45 15.9 Q 368.1 11.1 367.3 6.2 Q 367.8 6.9 368.55 7.35 A 3.662 3.662 0 0 0 369.438 7.727 Q 369.88 7.853 370.4 7.9 A 17.799 17.799 0 0 1 375.512 14.556 A 20.94 20.94 0 0 1 375.75 15.1 A 33.918 33.918 0 0 1 377.467 20.43 A 43.797 43.797 0 0 1 378.3 25.1 A 7.524 7.524 0 0 0 379.542 25.558 Q 380.275 25.753 380.969 25.753 A 4.881 4.881 0 0 0 381.15 25.75 A 16.831 16.831 0 0 0 382.986 25.577 A 20.311 20.311 0 0 0 384 25.4 Q 384.7 25.3 385.45 25.2 Q 386.2 25.1 387.1 25.1 A 0.273 0.273 0 0 1 387.208 25.164 Q 387.349 25.303 387.215 25.662 A 1.73 1.73 0 0 1 387.2 25.7 A 1.769 1.769 0 0 0 387.156 25.794 Q 387.117 25.885 387.105 25.948 A 0.282 0.282 0 0 0 387.1 26 A 1.11 1.11 0 0 1 387.38 25.543 Q 387.558 25.371 387.823 25.285 A 1.53 1.53 0 0 1 387.95 25.25 A 5.721 5.721 0 0 1 388.717 25.13 A 7.531 7.531 0 0 1 389.4 25.1 A 8.979 8.979 0 0 0 390.093 25.074 A 7.738 7.738 0 0 0 390.35 25.05 A 2.067 2.067 0 0 0 390.703 24.981 Q 390.906 24.922 391.067 24.821 A 1.263 1.263 0 0 0 391.1 24.8 A 1.231 1.231 0 0 1 391.167 24.912 Q 391.418 25.393 390.795 25.493 A 1.656 1.656 0 0 1 390.75 25.5 A 11.216 11.216 0 0 1 389.564 25.597 A 10.001 10.001 0 0 1 389.3 25.6 A 7.611 7.611 0 0 0 389.059 25.604 Q 388.581 25.619 388.5 25.7 A 1.425 1.425 0 0 0 388.607 25.948 Q 388.805 26.3 389.15 26.3 A 2.292 2.292 0 0 0 389.698 26.23 A 3.036 3.036 0 0 0 390.1 26.1 A 1.887 1.887 0 0 0 390.698 26.001 A 2.009 2.009 0 0 0 390.7 26 A 0.945 0.945 0 0 1 390.995 25.95 Q 391.147 25.949 391.299 26 A 1.005 1.005 0 0 1 391.3 26 A 4.499 4.499 0 0 1 392.282 24.71 Q 393.178 23.912 394.477 23.769 A 5.076 5.076 0 0 1 394.7 23.75 Q 396.497 23.633 398.416 24.034 A 16.737 16.737 0 0 1 399.5 24.3 Q 399.7 24.9 400 25.45 A 10.85 10.85 0 0 1 400.306 26.053 A 8.641 8.641 0 0 1 400.5 26.5 A 17.388 17.388 0 0 1 400.969 27.433 Q 401.312 28.175 401.5 28.8 Q 401.736 29.586 401.415 30.373 A 3.124 3.124 0 0 1 401.2 30.8 A 3.595 3.595 0 0 1 400.308 31.761 Q 399.863 32.102 399.268 32.388 A 9.505 9.505 0 0 1 398.1 32.85 Q 395.953 33.55 393.152 33.902 A 38.156 38.156 0 0 1 392.75 33.95 Q 389.7 34.3 386.5 34.4 Q 383.3 34.5 380.6 34.7 A 90.326 90.326 0 0 0 380.852 38.29 Q 381.018 40.102 381.25 41.7 Q 381.7 44.8 382.2 47.9 Q 382.7 51 383.1 54.8 A 107.643 107.643 0 0 1 385.662 54.769 Q 390.9 54.769 395.756 55.293 A 82.202 82.202 0 0 1 398.95 55.7 A 40.717 40.717 0 0 1 407.212 57.781 A 34.084 34.084 0 0 1 412.2 60.1 Q 412.297 60.197 412.395 60.862 A 11.379 11.379 0 0 1 412.4 60.9 A 2.627 2.627 0 0 0 412.412 61.157 Q 412.424 61.284 412.45 61.391 A 1.158 1.158 0 0 0 412.5 61.55 A 0.182 0.182 0 0 0 412.554 61.627 Q 412.698 61.742 413.1 61.5 Z M 228.8 66.8 Q 230.6 70.1 230.7 73.75 Q 230.8 77.4 229.65 80.75 A 18.806 18.806 0 0 1 227.506 85.127 A 16.907 16.907 0 0 1 226.4 86.6 A 5.139 5.139 0 0 0 225.366 86.841 Q 224.581 87.119 224.05 87.65 A 49.495 49.495 0 0 0 223.377 88.337 Q 222.787 88.95 222.1 89.7 Q 218.3 91.2 213.85 91.95 Q 209.4 92.7 205 92.45 Q 200.6 92.2 196.8 90.75 A 14.62 14.62 0 0 1 191.974 87.784 A 13.953 13.953 0 0 1 190.6 86.3 Q 190.8 83.3 191.95 80.9 Q 193.1 78.5 194.4 76.9 Q 196.4 74.4 199.55 73.3 A 15.961 15.961 0 0 1 204.849 72.404 A 17.051 17.051 0 0 1 206.1 72.45 A 15.779 15.779 0 0 1 210.839 73.519 A 14.54 14.54 0 0 1 212.3 74.2 Q 215.1 75.7 216.3 78.4 Q 215.035 80.151 213.202 80.151 A 3.887 3.887 0 0 1 213.1 80.15 Q 211.23 80.101 208.972 79.616 A 31.17 31.17 0 0 1 208.9 79.6 Q 206.9 79.2 204.8 78.95 A 6.545 6.545 0 0 0 204.026 78.904 Q 202.608 78.904 201.237 79.53 A 8.071 8.071 0 0 0 200.7 79.8 A 3.704 3.704 0 0 0 200.264 80.334 Q 200.069 80.62 199.886 80.979 A 8.838 8.838 0 0 0 199.6 81.6 A 5.717 5.717 0 0 0 199.397 82.165 Q 199.149 82.996 199.3 83.6 Q 200 85 202.45 85.75 Q 204.9 86.5 207.7 86.1 Q 210.2 85.7 213.3 84.75 A 28.552 28.552 0 0 0 216.941 83.367 A 24.072 24.072 0 0 0 218.9 82.35 Q 221.4 80.9 222 79.3 A 8.338 8.338 0 0 0 222.568 77.033 Q 222.705 75.667 222.35 74.3 Q 221.7 71.8 219.95 69.95 Q 218.2 68.1 215.8 67.7 A 45.414 45.414 0 0 0 212.828 67.547 Q 211.03 67.511 209.085 67.6 A 65.92 65.92 0 0 0 208.15 67.65 A 26.803 26.803 0 0 0 202.983 68.452 A 23.116 23.116 0 0 0 200.5 69.25 Q 197 70.6 195.3 73.8 A 10.227 10.227 0 0 1 194.3 73.909 Q 190.555 74.123 188.57 71.182 A 8.736 8.736 0 0 1 188 70.2 Q 187.7 67 188.95 65.45 Q 190.2 63.9 192.1 63.1 Q 192.6 60.2 192.85 58.5 Q 193.065 57.039 193.39 55.209 A 163.699 163.699 0 0 1 193.5 54.6 Q 190.6 52.1 189.15 48.55 Q 187.7 45 187.7 41.05 Q 187.7 37.1 189.2 33.5 Q 190.7 29.9 193.65 27.3 A 14.714 14.714 0 0 1 198.64 24.441 A 18.728 18.728 0 0 1 201 23.8 Q 201.1 22.4 200.75 21.3 A 21.606 21.606 0 0 0 200.34 20.126 A 17.017 17.017 0 0 0 200 19.3 A 23.439 23.439 0 0 1 199.299 16.973 A 21.074 21.074 0 0 1 199.2 16.55 A 2.949 2.949 0 0 1 199.131 15.908 Q 199.131 14.808 199.9 13.5 Q 201.8 12.9 203.95 13.65 Q 206.1 14.4 207.8 15.95 A 7.168 7.168 0 0 1 208.826 17.093 Q 209.426 17.94 209.626 18.853 A 4.304 4.304 0 0 1 209.7 19.3 L 209.7 20 L 209.7 20.8 Q 209.7 22.4 209.9 24.15 A 3.646 3.646 0 0 0 210.04 24.837 Q 210.384 25.922 211.4 26 A 20.97 20.97 0 0 1 216.2 26.774 Q 220.028 27.893 222.525 30.556 A 13.297 13.297 0 0 1 223.05 31.15 A 13.328 13.328 0 0 1 226.133 39.539 Q 226.18 41.193 225.9 43 A 12.085 12.085 0 0 1 224.967 46.399 A 10.681 10.681 0 0 1 223.8 48.4 A 20.507 20.507 0 0 0 221.916 51.457 A 17.479 17.479 0 0 0 221.2 53.1 A 53.031 53.031 0 0 1 219.24 54.463 Q 217.333 55.723 215.858 56.406 A 14.83 14.83 0 0 1 215.65 56.5 Q 213.515 57.449 211.651 57.677 A 10.195 10.195 0 0 1 211.45 57.7 A 36.206 36.206 0 0 1 209.501 57.844 Q 208.475 57.893 207.33 57.899 A 61.138 61.138 0 0 1 207 57.9 L 204.4 57.9 Q 203 57.9 201.3 58 A 4.016 4.016 0 0 0 200.769 59.372 A 4.931 4.931 0 0 0 200.7 59.85 Q 200.6 60.9 200.5 61.6 Q 201.5 61.6 202.65 61.45 A 43.665 43.665 0 0 1 204.146 61.282 A 52.004 52.004 0 0 1 205.1 61.2 Q 208.2 60.9 211.85 60.65 Q 215.5 60.4 218.9 61 A 15.342 15.342 0 0 1 222.226 62.005 A 12.723 12.723 0 0 1 224.45 63.25 Q 226.8 64.9 228.8 66.8 Z M 610.619 35.699 A 9.091 9.091 0 0 0 610.7 35.4 A 24.046 24.046 0 0 0 608.875 33.233 A 18.4 18.4 0 0 0 606.2 30.9 A 6.883 6.883 0 0 0 603.849 29.838 Q 602.618 29.534 601.153 29.597 A 13.284 13.284 0 0 0 600 29.7 A 3.265 3.265 0 0 1 599.969 29.825 Q 599.808 30.414 599.451 30.828 A 2.498 2.498 0 0 1 598.5 31.5 A 99.995 99.995 0 0 0 593.664 32.461 A 124.821 124.821 0 0 0 586.15 34.4 Q 579.6 36.3 573 36.6 A 52.202 52.202 0 0 1 570.436 36.664 Q 568.708 36.664 567.076 36.543 A 36.795 36.795 0 0 1 561.9 35.8 Q 556.9 34.7 552.2 33.3 A 13.99 13.99 0 0 1 551.883 33.233 A 16.554 16.554 0 0 1 551.15 33.05 A 10.533 10.533 0 0 1 551.081 33.031 A 9.638 9.638 0 0 1 550.1 32.7 A 12.847 12.847 0 0 0 552.769 36.275 A 16.72 16.72 0 0 0 556 38.65 A 28.585 28.585 0 0 0 560.3 40.645 A 37.17 37.17 0 0 0 565.6 42.15 Q 571.1 43.3 577 43.35 A 66.153 66.153 0 0 0 577.561 43.352 Q 578.435 43.352 579.297 43.329 A 57.051 57.051 0 0 0 588.25 42.4 A 50.363 50.363 0 0 0 588.913 42.272 Q 593.844 41.281 597.5 39.5 Q 595.1 43.1 592.3 46.5 A 120.682 120.682 0 0 1 589.888 49.341 A 94.827 94.827 0 0 1 586.9 52.6 A 148.559 148.559 0 0 1 586.664 52.844 Q 585.022 54.542 583.75 55.745 A 45.04 45.04 0 0 1 582.6 56.8 Q 580 59.1 576.4 61.95 Q 572.8 64.8 569.15 67.5 A 336.664 336.664 0 0 1 568.138 68.246 Q 566.643 69.343 565.281 70.316 A 198.019 198.019 0 0 1 562.6 72.2 A 361.728 361.728 0 0 0 560.954 73.061 Q 560.09 73.516 559.143 74.02 A 652.923 652.923 0 0 0 556.75 75.3 Q 553.4 77.1 550.1 78.75 A 52.496 52.496 0 0 1 549.184 79.197 Q 547.827 79.843 546.577 80.337 A 29.679 29.679 0 0 1 544.1 81.2 Q 544.5 81.5 545.55 81.85 Q 546.469 82.156 547.273 82.156 A 4.098 4.098 0 0 0 547.5 82.15 A 2.581 2.581 0 0 0 547.544 82.147 Q 548.397 82.085 548.3 81.5 A 8.577 8.577 0 0 0 552.697 82.688 A 9.762 9.762 0 0 0 553.55 82.65 Q 556.4 82.4 558.75 81.35 Q 560.439 80.595 561.379 79.918 A 5.07 5.07 0 0 0 562 79.4 Q 563.1 80 564.2 79.5 A 5.672 5.672 0 0 0 564.353 79.427 A 5.876 5.876 0 0 0 566.15 78.05 A 12.98 12.98 0 0 0 566.225 77.966 Q 566.743 77.377 567.044 76.886 A 3.786 3.786 0 0 0 567.3 76.4 A 1.944 1.944 0 0 0 567.356 76.633 Q 567.61 77.442 568.45 77 A 14.338 14.338 0 0 0 568.686 76.873 A 12.828 12.828 0 0 0 570.2 75.9 A 46.355 46.355 0 0 1 570.3 75.825 Q 571.013 75.294 571.2 75.2 A 0.282 0.282 0 0 1 571.195 75.252 Q 571.183 75.316 571.144 75.406 A 1.769 1.769 0 0 1 571.1 75.5 Q 571.018 75.665 571.139 75.761 A 0.344 0.344 0 0 0 571.2 75.8 Q 578.2 70.9 584.8 65.65 Q 591.4 60.4 597.15 54.2 Q 602.9 48 607.1 40.4 Q 608 40.2 608.6 39.55 A 3.36 3.36 0 0 1 609.015 39.17 A 3.641 3.641 0 0 1 610.1 38.6 Q 610.1 38.184 610.135 37.839 A 4.66 4.66 0 0 1 610.2 37.4 L 610.4 36.4 A 21.168 21.168 0 0 0 610.52 36.028 Q 610.575 35.852 610.619 35.699 Z M 509.1 31.8 A 9.992 9.992 0 0 0 508.656 33.502 Q 508.526 34.294 508.55 35.05 A 7.26 7.26 0 0 1 508.554 35.284 Q 508.554 36.188 508.315 36.817 A 2.361 2.361 0 0 1 508 37.4 A 25.918 25.918 0 0 1 508.031 38.653 A 23.178 23.178 0 0 1 505.65 49 A 78.799 78.799 0 0 1 502.764 54.371 A 60.066 60.066 0 0 1 500.1 58.5 Q 499.814 58.119 498.937 58.783 A 5.46 5.46 0 0 0 498.85 58.85 Q 497.9 59.6 496.8 60.5 Q 496.1 61.2 495.35 61.8 A 10.928 10.928 0 0 1 494.809 62.208 Q 494.375 62.513 494 62.7 A 21.81 21.81 0 0 1 488.492 64.805 A 24.925 24.925 0 0 1 487.6 65 A 14.077 14.077 0 0 1 484.832 65.272 Q 483.106 65.272 481.311 64.862 A 18.295 18.295 0 0 1 480.3 64.6 A 3.496 3.496 0 0 1 479.113 63.991 A 4.06 4.06 0 0 1 479 63.9 A 6.064 6.064 0 0 0 478.582 63.579 Q 478.378 63.438 478.188 63.336 A 2.822 2.822 0 0 0 477.9 63.2 A 43.357 43.357 0 0 1 475.409 62.154 A 38.161 38.161 0 0 1 475.4 62.15 Q 474.2 61.6 473.3 60.6 A 19.058 19.058 0 0 1 472.019 58.83 A 22.161 22.161 0 0 1 471.6 58.15 Q 470.8 56.8 469.8 55.5 Q 468.8 54.2 467.95 52.75 Q 467.1 51.3 466.3 49.9 Q 466.5 52.3 466.65 54.95 A 26.663 26.663 0 0 0 467.055 58.353 A 22.644 22.644 0 0 0 467.4 59.9 Q 467.6 60.5 467.95 61 A 3.09 3.09 0 0 1 468.23 61.484 A 2.34 2.34 0 0 1 468.4 62 Q 468.5 62.5 468.5 63 L 468.5 64 L 468.5 65.15 A 5.459 5.459 0 0 0 468.566 66.011 A 4.903 4.903 0 0 0 468.6 66.2 A 5.939 5.939 0 0 1 468.857 67.914 A 5.721 5.721 0 0 1 468.85 68.2 Q 468.8 69.2 468.7 70.2 Q 468.7 70.8 468.65 71.45 A 17.363 17.363 0 0 0 468.601 72.615 A 19.322 19.322 0 0 0 468.6 72.8 A 11.751 11.751 0 0 0 468.694 74.303 A 10.86 10.86 0 0 0 468.7 74.35 Q 468.8 75.1 468.9 75.9 A 44.191 44.191 0 0 1 469.187 78.8 A 48.185 48.185 0 0 1 469.2 79 Q 469.275 80.2 469.181 81.569 A 25.626 25.626 0 0 1 469.1 82.5 Q 466.5 79.3 465.65 75.05 Q 464.8 70.8 464 66.7 Q 463 61.4 462.1 56.25 A 120.865 120.865 0 0 1 461.052 48.862 A 141.964 141.964 0 0 1 460.7 45.3 Q 459.1 45.2 457.45 45.2 L 454.1 45.2 Q 449.8 45.3 445.95 44.9 A 8.776 8.776 0 0 1 442.916 44.052 A 7.755 7.755 0 0 1 440 41.5 Q 443 41 446.65 40.85 Q 450.3 40.7 453.85 40.65 Q 456.568 40.612 458.729 40.486 A 69.172 69.172 0 0 0 460 40.4 L 459.8 38.6 L 459.6 36.8 Q 459.2 32.9 459.05 29.05 A 16.755 16.755 0 0 1 459.037 28.398 Q 459.037 24.96 460.5 22.4 Q 462.542 23.421 463.163 26.251 A 10.028 10.028 0 0 1 463.25 26.7 A 58.365 58.365 0 0 1 463.913 32.098 A 65.576 65.576 0 0 1 464 33.4 A 95.895 95.895 0 0 0 464.231 36.5 A 87.892 87.892 0 0 0 464.25 36.7 A 27.587 27.587 0 0 0 464.496 38.622 A 23.195 23.195 0 0 0 464.7 39.7 A 191.428 191.428 0 0 0 478.241 37.354 A 174.257 174.257 0 0 0 480.1 36.95 A 75.491 75.491 0 0 0 490.169 33.984 A 65.689 65.689 0 0 0 493.8 32.5 A 0.81 0.81 0 0 0 493.909 32.757 Q 494.217 33.215 495.15 32.85 Q 496.3 32.4 497.5 31.8 Q 498 31.6 498.4 31.4 A 7.517 7.517 0 0 1 498.686 31.264 Q 498.912 31.163 499.1 31.1 Q 499.2 30.6 498.4 30.6 A 2.154 2.154 0 0 1 498.769 30.213 A 1.826 1.826 0 0 1 499.1 30 Q 499.5 29.8 500 29.6 A 9.187 9.187 0 0 0 501.116 28.944 A 8.098 8.098 0 0 0 501.45 28.7 A 1.199 1.199 0 0 0 501.865 28.081 Q 502.009 27.611 501.9 26.902 A 4.001 4.001 0 0 0 501.9 26.9 A 16.142 16.142 0 0 1 503.289 27.152 Q 503.996 27.31 504.774 27.539 A 28.839 28.839 0 0 1 505.3 27.7 A 9.74 9.74 0 0 1 506.878 28.346 A 7.102 7.102 0 0 1 508.4 29.4 Q 508.5 30.1 508.6 30.75 A 2.152 2.152 0 0 0 508.745 31.271 A 1.667 1.667 0 0 0 509.1 31.8 Z M 289.266 47.344 A 17.837 17.837 0 0 0 290.6 44.7 A 20.03 20.03 0 0 0 290.766 44.292 Q 292.638 39.544 291.2 35.9 Q 289.7 32.1 287 28.9 A 20.998 20.998 0 0 0 279.139 27.357 A 21.012 21.012 0 0 0 277.8 27.4 Q 273.1 27.7 268.7 29.55 Q 264.3 31.4 260.65 34.2 A 38.786 38.786 0 0 0 258.379 36.081 A 31.952 31.952 0 0 0 254.5 40.2 Q 253.4 38.6 252.3 37.05 Q 251.2 35.5 249.6 34.4 A 8.407 8.407 0 0 0 249.477 34.52 Q 247.608 36.369 247.85 38.5 A 29.579 29.579 0 0 0 247.937 39.19 A 32.799 32.799 0 0 0 248.7 43 Q 249.1 44.3 249.4 45.6 Q 249.7 46.9 249.6 48.1 A 3.211 3.211 0 0 1 249.417 48.868 A 3.71 3.71 0 0 1 248.9 49.8 A 5.365 5.365 0 0 0 248.452 50.5 A 3.972 3.972 0 0 0 248.1 51.4 A 25.614 25.614 0 0 0 247.828 52.612 A 28.312 28.312 0 0 0 247.3 58.15 A 32.851 32.851 0 0 0 247.318 59.251 A 28.957 28.957 0 0 0 248.05 64.9 A 24.51 24.51 0 0 0 248.146 65.296 Q 248.887 68.238 250.2 70.3 A 8.148 8.148 0 0 1 250.586 70.507 Q 250.917 70.695 251.278 70.937 A 16.462 16.462 0 0 1 252 71.45 A 56.167 56.167 0 0 1 252.764 72.034 A 68.17 68.17 0 0 1 254.1 73.1 A 53.417 53.417 0 0 0 254.86 73.721 A 59.386 59.386 0 0 0 259.3 76.95 A 13.71 13.71 0 0 0 260.13 77.458 Q 262.46 78.77 264.5 78.6 A 5.086 5.086 0 0 0 265.25 79.087 Q 265.925 79.447 266.768 79.656 A 9.738 9.738 0 0 0 268.3 79.9 A 19.664 19.664 0 0 0 269.933 79.967 Q 271.6 79.967 273.4 79.7 Q 276.1 79.3 278.4 78.65 Q 280.7 78 281.8 77.6 A 14.298 14.298 0 0 1 282.224 77.244 Q 282.746 76.823 283.506 76.269 A 64.703 64.703 0 0 1 284.3 75.7 A 19.813 19.813 0 0 0 285.778 74.545 A 24.63 24.63 0 0 0 287.65 72.75 Q 289.3 71 290 68.8 A 37.625 37.625 0 0 0 290.524 66.967 Q 291.461 63.332 291.3 60.6 A 23.282 23.282 0 0 0 291.253 59.952 Q 290.994 56.968 290 54.8 Q 288.9 56.7 287.95 59.15 A 49.768 49.768 0 0 1 287.89 59.303 A 45.547 45.547 0 0 1 285.85 63.8 A 11.07 11.07 0 0 1 285.589 64.271 A 9.318 9.318 0 0 1 282.8 67.3 Q 280.5 69.2 277.3 70.5 A 16.836 16.836 0 0 1 270.905 71.752 A 17.614 17.614 0 0 1 270.65 71.75 Q 267.2 71.7 263.9 69.7 Q 263.761 69.63 263.574 69.488 A 4.828 4.828 0 0 1 263.4 69.35 Q 263.231 69.209 263.031 69.053 A 21.552 21.552 0 0 0 262.7 68.8 Q 261.8 68.1 260.7 67.35 Q 259.729 66.688 258.681 66.688 A 3.382 3.382 0 0 0 258.4 66.7 A 4.285 4.285 0 0 1 258.211 66.497 Q 257.587 65.787 256.85 64.4 Q 256 62.8 255.5 60.7 A 11.96 11.96 0 0 1 255.167 57.922 A 11.325 11.325 0 0 1 255.25 56.55 Q 255.5 54.5 256.9 53 A 16.539 16.539 0 0 0 258.382 53.88 A 18.694 18.694 0 0 0 262.35 55.4 Q 265.4 56.2 268.4 56.4 A 54.657 54.657 0 0 0 269.658 56.47 Q 270.991 56.528 272.195 56.51 A 33.522 33.522 0 0 0 273.8 56.45 Q 276.2 56.3 277.3 56 A 10.179 10.179 0 0 1 277.313 55.987 Q 278.171 55.186 279.287 54.514 A 16.343 16.343 0 0 1 281.4 53.45 A 21.241 21.241 0 0 0 283.676 52.324 A 27.001 27.001 0 0 0 286.45 50.5 Q 288.044 49.313 289.266 47.344 Z M 172.42 79.631 A 5.542 5.542 0 0 0 176 77.1 Q 175.3 75.1 173.45 74.05 A 14.759 14.759 0 0 0 172.696 73.65 A 12.647 12.647 0 0 0 169.7 72.6 A 15.309 15.309 0 0 1 168.45 70.328 A 17.247 17.247 0 0 1 167.15 65.7 Q 166.794 63.176 166.794 60.465 A 43.815 43.815 0 0 1 166.9 57.45 Q 167.2 53.1 167.6 48.8 Q 168 45.9 168.25 43 A 51.3 51.3 0 0 0 168.344 41.725 Q 168.478 39.542 168.4 37.6 A 2.154 2.154 0 0 1 168.309 37.467 Q 168.085 37.116 167.718 36.334 A 36.141 36.141 0 0 1 167.45 35.75 Q 167.084 34.934 166.64 33.976 A 224.987 224.987 0 0 0 165.9 32.4 A 30.531 30.531 0 0 0 165.787 32.164 A 27.829 27.829 0 0 0 163.9 28.85 A 11.38 11.38 0 0 0 163.405 28.162 Q 162.989 27.629 162.558 27.226 A 5.364 5.364 0 0 0 161.6 26.5 Q 157.229 25.214 153.224 25.214 A 24.403 24.403 0 0 0 151.9 25.25 A 56.332 56.332 0 0 0 150.63 25.333 Q 148.761 25.477 147.105 25.737 A 31.795 31.795 0 0 0 143.9 26.4 Q 142.4 27.6 140.2 28.55 Q 138 29.5 135.75 30.6 Q 133.5 31.7 131.7 33.15 Q 129.9 34.6 129.2 36.7 A 3.877 3.877 0 0 0 129.012 37.881 Q 129.012 39.479 130.4 41.05 A 7.965 7.965 0 0 0 130.535 41.199 A 6.321 6.321 0 0 0 135.1 43.3 A 5.551 5.551 0 0 0 136.078 43.217 A 4.1 4.1 0 0 0 137.65 42.6 Q 138.7 41.9 139.6 41 Q 140.2 40.5 140.75 40.05 Q 141.3 39.6 142 39.2 Q 142.8 36.1 145.95 34.2 A 21.404 21.404 0 0 1 146.229 34.035 Q 147.573 33.251 148.872 32.761 A 12.504 12.504 0 0 1 152 32 Q 152.731 31.919 154.024 31.97 A 35.276 35.276 0 0 1 154.65 32 A 11.337 11.337 0 0 1 155.694 32.105 Q 156.72 32.26 157.4 32.6 Q 159.2 33.4 159.7 35.3 Q 160.117 36.883 160.117 38.675 A 15.966 15.966 0 0 1 160.1 39.4 Q 160.047 40.569 159.937 41.596 A 25.194 25.194 0 0 1 159.7 43.3 A 26.53 26.53 0 0 0 159.642 43.66 Q 159.584 44.041 159.55 44.35 A 8.664 8.664 0 0 0 159.52 44.68 A 7.195 7.195 0 0 0 159.5 45.2 A 157.53 157.53 0 0 0 158.603 45.465 A 143.781 143.781 0 0 0 145.75 49.95 Q 139.2 52.6 133.8 56.7 Q 131.8 59.6 131.4 63.6 Q 131 67.6 132.15 71.25 A 14.097 14.097 0 0 0 133.125 73.613 A 10.332 10.332 0 0 0 135.8 76.9 Q 137.5 78.2 139.7 78.65 A 31.511 31.511 0 0 0 141.055 78.897 A 26.494 26.494 0 0 0 143.9 79.2 A 19.408 19.408 0 0 0 144.708 79.217 Q 149.002 79.217 152.25 77.25 Q 155.8 75.1 158.9 72.6 Q 159.3 72.3 159.75 71.95 Q 160.2 71.6 160.6 71.3 Q 160.59 71.602 160.599 71.895 A 7.052 7.052 0 0 0 162.3 76.4 Q 164.1 78.5 166.8 79.35 A 12.484 12.484 0 0 0 167.224 79.475 Q 168.708 79.885 170.16 79.885 A 10.248 10.248 0 0 0 172.1 79.7 A 7.46 7.46 0 0 0 172.42 79.631 Z M 23.337 78.762 A 19.276 19.276 0 0 0 25.3 78.1 A 5.849 5.849 0 0 0 25.032 76.957 A 3.896 3.896 0 0 0 23.45 74.9 A 16.604 16.604 0 0 0 22.958 74.595 A 18.288 18.288 0 0 0 20.05 73.2 Q 18.2 72.5 17 71.2 A 2.977 2.977 0 0 1 16.896 70.794 Q 16.816 70.356 16.85 69.85 A 28.756 28.756 0 0 0 16.877 69.395 Q 16.888 69.181 16.894 68.992 A 12.928 12.928 0 0 0 16.9 68.6 A 12.804 12.804 0 0 0 16.907 68.566 Q 16.976 68.215 16.994 68.018 A 1.332 1.332 0 0 0 17 67.9 A 2.056 2.056 0 0 0 16.975 67.587 A 2.756 2.756 0 0 0 16.9 67.25 Q 16.8 66.9 16.7 66.6 Q 16.5 66.3 16.4 65.95 A 2.796 2.796 0 0 1 16.33 65.643 A 2.083 2.083 0 0 1 16.3 65.3 A 0.108 0.108 0 0 1 16.307 65.264 Q 16.333 65.191 16.459 65.077 A 2.031 2.031 0 0 1 16.55 65 A 0.819 0.819 0 0 0 16.602 64.955 A 0.604 0.604 0 0 0 16.8 64.5 Q 16.856 62.598 16.834 60.509 A 127.253 127.253 0 0 0 16.75 57.1 Q 16.6 53.1 16.3 49.1 A 130.218 130.218 0 0 1 16.276 48.677 A 118.756 118.756 0 0 1 16.15 45.8 A 95.416 95.416 0 0 0 16.137 45.402 A 86.887 86.887 0 0 0 16 42.7 Q 15.9 40.9 16 39 Q 16.1 37.1 16.3 35.2 Q 16.4 33 16.55 30.75 A 28.848 28.848 0 0 0 16.614 28.831 A 27.937 27.937 0 0 0 16.5 26.3 A 5.259 5.259 0 0 0 16.489 25.967 A 6.208 6.208 0 0 0 16.4 25.25 A 6.609 6.609 0 0 1 16.347 24.911 A 5.574 5.574 0 0 1 16.3 24.2 A 27.16 27.16 0 0 1 16.226 23.64 Q 16.043 22.136 16.043 20.71 A 21.855 21.855 0 0 1 16.05 20.15 A 4.089 4.089 0 0 1 16.757 17.927 A 5.314 5.314 0 0 1 17.8 16.8 A 3.76 3.76 0 0 0 18.405 17.035 Q 19.07 17.234 20 17.3 A 10.336 10.336 0 0 0 20.173 17.311 Q 20.923 17.352 21.553 17.274 A 5.139 5.139 0 0 0 22.4 17.1 A 24.125 24.125 0 0 0 22.909 15.943 A 20.038 20.038 0 0 0 23.65 13.8 A 5.176 5.176 0 0 0 23.843 12.392 Q 23.843 12.001 23.786 11.598 A 6.776 6.776 0 0 0 23.5 10.4 A 10.672 10.672 0 0 0 21.669 9.12 A 14.073 14.073 0 0 0 19.5 8.15 Q 17.1 7.3 14.7 7.1 Q 13.053 6.885 11.048 6.952 A 33.258 33.258 0 0 0 9.4 7.05 A 25.656 25.656 0 0 0 8.107 7.191 A 22.184 22.184 0 0 0 3.8 8.2 A 11.229 11.229 0 0 0 3.525 8.299 Q 2.575 8.656 1.824 9.14 A 6.161 6.161 0 0 0 0 10.9 A 6.034 6.034 0 0 1 0.695 11.738 A 7.622 7.622 0 0 1 1.35 12.9 A 28.872 28.872 0 0 1 1.493 13.217 Q 1.774 13.85 1.946 14.327 A 7.487 7.487 0 0 1 2.1 14.8 A 4.919 4.919 0 0 0 3.543 15.704 A 6.58 6.58 0 0 0 4.95 16.1 A 14.18 14.18 0 0 1 5.384 16.181 A 12.56 12.56 0 0 1 8.2 17.1 Q 8.3 22.8 8.35 27.55 Q 8.4 32.3 8.45 36.65 Q 8.5 41 8.5 45.8 Q 8.5 51.8 8.35 58.3 A 183.101 183.101 0 0 1 8.329 59.111 A 167.518 167.518 0 0 1 7.6 70.9 A 2.271 2.271 0 0 1 7.396 71.003 Q 6.925 71.212 6.18 71.32 A 10.228 10.228 0 0 1 5.4 71.4 Q 3.9 71.5 2.45 71.8 A 4.57 4.57 0 0 0 2.162 71.869 A 3.494 3.494 0 0 0 0.2 73.2 Q 0.3 76 2.35 77.95 Q 4.4 79.9 7.1 80.5 Q 8.183 80.741 9.137 80.692 A 5.214 5.214 0 0 0 11.7 79.9 Q 12.4 80.6 13.8 80.5 Q 15.2 80.4 16.8 80.1 Q 18.1 79.9 19.35 79.75 A 7.434 7.434 0 0 1 19.68 79.718 Q 20.312 79.67 20.817 79.75 A 2.985 2.985 0 0 1 21.4 79.9 A 3.45 3.45 0 0 1 22.008 79.351 A 3.763 3.763 0 0 1 23.2 78.8 A 21.044 21.044 0 0 0 23.337 78.762 Z M 700.8 33.3 Q 701.4 39.4 700.8 45.85 A 61.206 61.206 0 0 1 698.62 57.416 A 56.812 56.812 0 0 1 698.4 58.15 A 41.558 41.558 0 0 1 695.995 64.272 A 33.73 33.73 0 0 1 693.6 68.4 A 1.46 1.46 0 0 0 693.102 68.621 Q 692.784 68.848 692.643 69.253 A 1.737 1.737 0 0 0 692.6 69.4 A 0.95 0.95 0 0 1 691.962 70.101 Q 691.687 70.2 691.3 70.2 Q 691.211 70.732 691.752 70.792 A 1.341 1.341 0 0 0 691.9 70.8 Q 689.1 75.1 685.35 77.5 Q 681.6 79.9 677.3 82.7 A 19.58 19.58 0 0 0 676.308 82.614 Q 675.383 82.559 674.596 82.611 A 9.979 9.979 0 0 0 674.15 82.65 A 49.848 49.848 0 0 0 672.365 82.88 A 42.207 42.207 0 0 0 671.6 83 Q 670.9 83.1 670.25 83.2 A 8.513 8.513 0 0 1 669.304 83.294 A 7.434 7.434 0 0 1 669 83.3 Q 668.9 82.7 669.4 82.5 Q 669.9 82.3 670.3 82.5 A 4.449 4.449 0 0 0 670.095 82.372 Q 669.907 82.261 669.649 82.127 A 17.174 17.174 0 0 0 669.4 82 A 5.083 5.083 0 0 1 668.677 81.563 A 4.34 4.34 0 0 1 668.35 81.3 A 0.901 0.901 0 0 1 668.069 80.806 Q 667.995 80.472 668.1 80 Q 668.383 80.094 668.355 80.455 A 0.974 0.974 0 0 1 668.35 80.5 Q 668.301 80.889 668.679 80.9 A 0.764 0.764 0 0 0 668.7 80.9 Q 669.1 81 669.4 80.6 A 0.819 0.819 0 0 1 669.535 80.442 A 0.533 0.533 0 0 1 669.9 80.3 A 0.675 0.675 0 0 0 669.419 80.1 A 0.886 0.886 0 0 0 669.4 80.1 Q 669.136 80.1 668.796 79.791 A 2.688 2.688 0 0 1 668.7 79.7 Q 670.6 78.9 672.1 77.95 A 2680.854 2680.854 0 0 1 673.594 77.004 Q 674.379 76.508 675.249 75.958 A 4504.052 4504.052 0 0 1 675.5 75.8 Q 675.6 76.2 675.2 76.5 A 0.819 0.819 0 0 0 675.042 76.635 A 0.533 0.533 0 0 0 674.9 77 A 1.394 1.394 0 0 0 675.084 76.986 Q 675.278 76.96 675.557 76.885 A 8.434 8.434 0 0 0 675.85 76.8 Q 676.5 76.6 677.3 76.4 A 1.075 1.075 0 0 0 677.223 76.156 A 0.613 0.613 0 0 0 676.8 75.8 A 2.438 2.438 0 0 1 676.382 75.656 A 1.994 1.994 0 0 1 676.1 75.5 A 0.817 0.817 0 0 1 676.124 75.293 Q 676.195 75.024 676.474 74.962 A 0.736 0.736 0 0 1 676.55 74.95 Q 677 74.9 677.5 74.9 L 677.9 74.9 A 1.116 1.116 0 0 1 677.748 74.772 Q 677.347 74.359 677.927 73.851 A 2.403 2.403 0 0 1 678.05 73.75 Q 678.9 73.1 680 72.5 Q 680.5 72.2 681 71.95 A 3.923 3.923 0 0 0 681.373 71.739 Q 681.56 71.618 681.707 71.488 A 2.155 2.155 0 0 0 681.8 71.4 A 3.77 3.77 0 0 0 682.185 71.072 Q 682.599 70.664 682.689 70.256 A 1.087 1.087 0 0 0 682.7 70.2 A 2.792 2.792 0 0 1 682.938 69.459 A 3.668 3.668 0 0 1 683.2 69 A 66.529 66.529 0 0 0 688.215 60.961 A 81.077 81.077 0 0 0 690.55 56.2 Q 693.8 49 694.2 40.2 A 53.587 53.587 0 0 0 694.257 37.71 Q 694.257 34.557 693.9 31.2 Q 693.5 27.1 692.75 23.15 A 28.385 28.385 0 0 0 691.637 18.975 A 22.94 22.94 0 0 0 690.4 16.1 Q 689.7 15.7 689.2 14.9 Q 688.7 14.1 689.2 13.1 Q 689.6 13.5 690.3 13.45 Q 691 13.4 691.7 13.2 Q 692.2 13.1 692.5 13.1 Q 693.1 14.3 694.1 15.15 A 15.212 15.212 0 0 0 696.225 16.656 A 16.713 16.713 0 0 0 696.3 16.7 A 23.307 23.307 0 0 0 697.774 19.938 A 21.384 21.384 0 0 0 697.95 20.25 Q 698.9 21.9 699.6 23.8 Q 699.6 26 700.1 28.35 A 36.796 36.796 0 0 1 700.714 32.334 A 41.703 41.703 0 0 1 700.8 33.3 Z M 818.3 46.5 Q 817.8 46.7 817.35 46.95 Q 816.9 47.2 816.5 47.4 A 35.509 35.509 0 0 1 813.137 48.956 A 38.95 38.95 0 0 1 812.9 49.05 A 8.601 8.601 0 0 1 809.713 49.642 A 10.082 10.082 0 0 1 808.8 49.6 A 291.88 291.88 0 0 0 804.087 49.082 Q 802.003 48.869 799.719 48.661 A 518.972 518.972 0 0 0 794.95 48.25 A 251.103 251.103 0 0 0 782.603 47.556 A 285.948 285.948 0 0 0 778.3 47.45 A 131.357 131.357 0 0 0 776.036 47.43 A 125.396 125.396 0 0 0 761.2 48.3 Q 759.5 48.5 757.75 48.8 Q 756 49.1 754.3 49.4 Q 749 50.3 743.75 50.75 Q 739.471 51.117 735.026 49.856 A 29.417 29.417 0 0 1 733 49.2 A 25.997 25.997 0 0 1 739.73 45.002 A 28.973 28.973 0 0 1 739.85 44.95 Q 743.7 43.3 748 42.3 Q 755.5 40.5 762.95 40.15 Q 770.4 39.8 778.5 39.1 Q 781.406 38.819 785.191 38.889 A 87.542 87.542 0 0 1 785.7 38.9 Q 789.8 39 794.25 39.45 A 132.408 132.408 0 0 1 801.808 40.429 A 120.88 120.88 0 0 1 802.85 40.6 Q 807 41.3 810.3 42.2 Q 811.9 42.6 813.55 42.95 Q 815.2 43.3 816.55 44.05 A 3.435 3.435 0 0 1 818.134 45.944 A 4.829 4.829 0 0 1 818.3 46.5 Z M 673.284 29.139 A 32.47 32.47 0 0 0 674 26.8 A 5.538 5.538 0 0 0 673.235 26.999 A 4.17 4.17 0 0 0 671.45 28.15 Q 670.5 29.2 669.85 30.45 A 8.285 8.285 0 0 1 669.327 31.324 A 6.463 6.463 0 0 1 668.3 32.5 Q 667.4 27.5 665.2 22.65 Q 663 17.8 659.35 14.05 Q 655.7 10.3 650.7 8.5 A 18.093 18.093 0 0 0 648.605 7.887 Q 644.397 6.924 639.3 7.8 A 1.628 1.628 0 0 0 639.333 7.902 Q 639.458 8.251 639.722 8.461 A 1.355 1.355 0 0 0 640.2 8.7 A 4.281 4.281 0 0 0 640.515 8.777 Q 641.115 8.9 641.9 8.9 Q 646.2 11.6 650.15 14.2 A 35.133 35.133 0 0 1 651.354 15.028 Q 652.832 16.092 654.008 17.188 A 18.466 18.466 0 0 1 656.2 19.6 A 21.871 21.871 0 0 1 658.971 24.518 A 26.181 26.181 0 0 1 660.65 31.1 Q 661.5 37.8 660.4 44.3 A 1.118 1.118 0 0 1 660.681 44.368 Q 661.373 44.636 661.75 45.85 Q 662.004 46.667 661.892 47.119 A 0.663 0.663 0 0 1 661.5 47.6 A 7.984 7.984 0 0 0 661.994 48.161 A 8.376 8.376 0 0 0 664.55 49.95 A 6.164 6.164 0 0 0 665.384 50.265 Q 666.777 50.674 668.05 50.25 A 2.677 2.677 0 0 0 669.217 49.48 Q 669.594 49.058 669.853 48.444 A 6.194 6.194 0 0 0 670.2 47.3 Q 669.547 44.428 669.661 41.982 A 13.584 13.584 0 0 1 670 39.5 Q 670.8 36.1 672.2 32.2 Q 672.6 31 673.1 29.65 A 29.012 29.012 0 0 0 673.284 29.139 Z M 582.189 21.543 A 7.956 7.956 0 0 0 586 19.9 A 6.239 6.239 0 0 0 585.881 18.947 A 4.58 4.58 0 0 0 584.7 16.65 A 7.704 7.704 0 0 1 583.537 15.059 A 10.545 10.545 0 0 1 582.8 13.4 A 42.572 42.572 0 0 0 582.135 13.157 Q 581.152 12.807 580.258 12.546 A 23.738 23.738 0 0 0 578.5 12.1 A 4.406 4.406 0 0 0 578.447 12.089 Q 576.578 11.719 575 13.1 Q 571.081 12.739 567.654 12.086 A 53.919 53.919 0 0 1 561.65 10.6 Q 555.9 8.8 552.2 4.8 Q 552.1 4 551.35 2.45 Q 550.6 0.9 549.5 0.3 A 0.384 0.384 0 0 0 549.281 0.066 Q 549.203 0.031 549.1 0.014 A 1.276 1.276 0 0 0 548.9 0 A 0.419 0.419 0 0 1 548.878 0.133 Q 548.854 0.205 548.803 0.278 A 0.902 0.902 0 0 1 548.7 0.4 Q 548.5 0.6 548.6 0.9 Q 548.437 2.801 548.658 4.423 A 10.944 10.944 0 0 0 549.3 6.95 Q 550.3 9.5 551.9 11.3 A 17.621 17.621 0 0 0 553.027 12.42 Q 554.047 13.348 555.334 14.261 A 35.973 35.973 0 0 0 558.05 16 A 42.28 42.28 0 0 0 559.301 16.7 A 46.591 46.591 0 0 0 566.65 19.85 A 41.46 41.46 0 0 0 569.806 20.768 A 33.982 33.982 0 0 0 575.6 21.7 Q 578.3 21.8 581.15 21.65 A 10.147 10.147 0 0 0 582.189 21.543 Z M 493.4 39.4 A 50.299 50.299 0 0 0 493.472 39.38 Q 498.027 38.085 501.4 36.2 Q 500.1 40.5 498.7 44.6 Q 497.3 48.7 495.15 52 Q 493 55.3 489.6 57.3 A 13.243 13.243 0 0 1 488.348 57.948 Q 485.285 59.335 481 59.5 A 17.864 17.864 0 0 0 479.589 58.902 A 14.478 14.478 0 0 0 477.3 58.25 A 11.025 11.025 0 0 1 475.95 57.896 A 13.063 13.063 0 0 1 473.7 56.9 A 0.993 0.993 0 0 1 473.298 56.533 A 1.351 1.351 0 0 1 473.15 56.2 A 1.456 1.456 0 0 0 473.066 55.981 A 1.016 1.016 0 0 0 472.6 55.5 Q 471.3 54.6 470.05 54.05 Q 468.8 53.5 468.1 52.5 Q 467 51 466.7 48.75 A 15.801 15.801 0 0 0 466.338 46.871 A 11.831 11.831 0 0 0 465.6 44.8 A 174.273 174.273 0 0 1 465.66 44.789 Q 469.437 44.095 474.15 43.4 Q 478.9 42.7 483.85 41.7 A 140.201 140.201 0 0 0 484.005 41.669 A 128.99 128.99 0 0 0 493.4 39.4 Z M 216.3 46.7 L 216.4 46.6 A 44.875 44.875 0 0 0 216.789 45.459 Q 216.957 44.945 217.135 44.368 A 90.942 90.942 0 0 0 217.5 43.15 Q 218.1 41.1 217.85 38.8 A 6.105 6.105 0 0 0 216.858 36.108 Q 216.354 35.333 215.601 34.598 A 11.108 11.108 0 0 0 215.5 34.5 Q 213.5 33.2 210.95 32.5 A 14.645 14.645 0 0 0 209.314 32.162 Q 207.516 31.885 204.946 31.82 A 65.301 65.301 0 0 0 203.3 31.8 A 6.329 6.329 0 0 0 198.61 33.822 A 8.473 8.473 0 0 0 198.35 34.1 Q 196.3 36.4 195.65 39.5 A 11.222 11.222 0 0 0 195.424 41.188 Q 195.409 41.463 195.409 41.734 A 8.804 8.804 0 0 0 196.1 45.2 A 9.149 9.149 0 0 0 200.398 49.552 A 11.945 11.945 0 0 0 201.15 49.9 A 13.077 13.077 0 0 0 206.293 50.923 Q 207.405 50.923 208.567 50.752 A 17.332 17.332 0 0 0 208.9 50.7 A 12.954 12.954 0 0 0 215.691 47.296 A 16.145 16.145 0 0 0 216.3 46.7 Z M 159.8 60.3 Q 160 59.2 159.95 57.95 Q 159.9 56.7 159.9 55.4 Q 159.8 54.5 159.8 53.6 L 159.8 51.8 A 27.94 27.94 0 0 0 157.933 52.263 Q 156.142 52.767 153.9 53.6 Q 150.4 54.9 146.95 56.6 A 41.789 41.789 0 0 0 144.197 58.079 Q 142.512 59.073 141.2 60.1 A 4.679 4.679 0 0 0 139.98 61.66 Q 139.636 62.344 139.422 63.212 A 11.044 11.044 0 0 0 139.2 64.4 A 20.666 20.666 0 0 0 139.052 65.928 Q 138.971 67.303 139.11 68.483 A 10.637 10.637 0 0 0 139.3 69.6 A 7.163 7.163 0 0 0 140.488 70.662 Q 141.993 71.713 143.7 71.5 Q 146.1 71.2 148.5 70.4 A 52.093 52.093 0 0 1 150.037 69.913 A 46.983 46.983 0 0 1 150.25 69.85 Q 151.1 69.6 152 69.5 A 10.655 10.655 0 0 1 154.794 66.623 A 10.28 10.28 0 0 1 154.9 66.55 Q 156.6 65.4 158.05 64.05 A 5.316 5.316 0 0 0 159.447 61.858 A 7.638 7.638 0 0 0 159.8 60.3 Z M 280 36.8 A 17.069 17.069 0 0 0 276.3 36.326 Q 276.178 36.324 276.057 36.324 A 15.61 15.61 0 0 0 271.85 36.9 Q 267.9 38 264.75 40.35 A 21.363 21.363 0 0 0 261.708 43.085 A 17.275 17.275 0 0 0 259.8 45.6 A 7.513 7.513 0 0 0 260.726 46.258 Q 261.721 46.867 263.238 47.491 A 32.971 32.971 0 0 0 264.15 47.85 Q 267.2 49 270.8 49.2 Q 272.899 49.317 274.692 48.889 A 10.493 10.493 0 0 0 277.1 48 Q 279.281 46.781 280.474 45.377 A 6.369 6.369 0 0 0 281.5 43.75 A 8.633 8.633 0 0 0 281.963 42.361 Q 282.145 41.592 282.145 40.863 A 5.494 5.494 0 0 0 281.95 39.4 Q 281.4 37.4 280 36.8 Z M 416.9 16.15 A 5.889 5.889 0 0 0 420.826 17.585 Q 421.628 17.585 422.5 17.4 A 11.666 11.666 0 0 0 422.854 15.992 Q 423.017 15.103 423.004 14.284 A 6.374 6.374 0 0 0 422.05 10.95 A 10.793 10.793 0 0 0 420.09 8.621 A 13.076 13.076 0 0 0 417.25 6.7 Q 414.1 5.1 410.6 4.6 A 51.152 51.152 0 0 0 411.149 6.208 A 58.887 58.887 0 0 0 413.1 10.95 Q 414.6 14.2 416.9 16.15 Z M 407.05 22.15 A 3.263 3.263 0 0 0 408.195 22.356 Q 409.466 22.356 410.9 21.4 Q 411.4 18 409.95 15.75 A 10.346 10.346 0 0 0 408.461 13.934 A 12.096 12.096 0 0 0 405.9 12.05 A 21.387 21.387 0 0 0 404.173 11.188 A 24.813 24.813 0 0 0 400.1 9.8 A 12.679 12.679 0 0 0 400.407 11.063 Q 400.635 11.819 400.941 12.429 A 5.471 5.471 0 0 0 401.8 13.7 Q 401.481 13.859 401.417 14.59 A 4.668 4.668 0 0 0 401.4 15 L 401.4 15.85 Q 401.4 16.3 401.2 16.7 A 0.734 0.734 0 0 1 401.27 16.782 Q 401.304 16.828 401.337 16.885 A 1.844 1.844 0 0 1 401.4 17 Q 402.5 18.4 403.9 19.95 A 9.43 9.43 0 0 0 404.575 20.627 A 7.648 7.648 0 0 0 407.05 22.15 Z M 75.8 57.5 A 0.731 0.731 0 0 0 75.731 57.581 Q 75.698 57.625 75.666 57.68 A 1.826 1.826 0 0 0 75.6 57.8 A 80.153 80.153 0 0 0 74.815 59.002 Q 74.473 59.536 74.107 60.122 A 140.334 140.334 0 0 0 73.35 61.35 Q 72.1 63.4 71.65 65.6 Q 71.2 67.8 72.4 69.7 Q 74.7 70.1 75.7 68.75 Q 76.635 67.488 76.827 65.525 A 9.945 9.945 0 0 0 76.85 65.25 Q 77 63.1 76.65 60.9 A 26.345 26.345 0 0 0 76.417 59.623 Q 76.144 58.325 75.8 57.5 Z M 104.5 59 Q 103.6 59.9 102.5 61.5 Q 101.4 63.1 100.65 64.9 A 7.441 7.441 0 0 0 100.265 66.077 Q 100.114 66.729 100.114 67.344 A 4.758 4.758 0 0 0 100.2 68.25 Q 100.455 69.567 102.009 70.342 A 6.53 6.53 0 0 0 102.6 70.6 A 5.324 5.324 0 0 0 103.439 69.485 Q 103.76 68.928 104.016 68.233 A 11.474 11.474 0 0 0 104.3 67.35 Q 104.9 65.2 105 62.85 A 15.548 15.548 0 0 0 105.014 62.276 Q 105.023 60.726 104.697 59.581 A 5.938 5.938 0 0 0 104.5 59 Z M 566.4 77 A 26.115 26.115 0 0 0 565.744 77.244 Q 565.04 77.517 564.568 77.756 A 6.143 6.143 0 0 0 564.3 77.9 A 3.954 3.954 0 0 0 563.846 78.209 Q 563.385 78.566 562.822 79.16 A 16.339 16.339 0 0 0 562.6 79.4 A 3.246 3.246 0 0 0 563.268 79.335 Q 563.897 79.203 564.3 78.8 A 0.28 0.28 0 0 0 564.206 78.74 Q 564.122 78.706 563.992 78.701 A 1.156 1.156 0 0 0 563.95 78.7 Q 563.723 78.7 563.702 78.535 A 0.28 0.28 0 0 1 563.7 78.5 Q 564.588 78.096 565.15 77.986 A 2.291 2.291 0 0 1 565.4 77.95 Q 565.99 77.901 566.387 77.028 A 3.62 3.62 0 0 0 566.4 77 Z M 497.7 30.8 Q 497.3 31.5 496.15 31.8 A 25.184 25.184 0 0 1 495.944 31.853 Q 495 32.091 495 32 L 495.25 31.95 Q 495.48 31.904 496.007 31.816 A 83.851 83.851 0 0 1 496.1 31.8 Q 496.4 31.5 496.75 31.2 Q 497.1 30.9 497.7 30.8 Z" vector-effect="non-scaling-stroke"/></g></svg>